<svg xmlns="http://www.w3.org/2000/svg" viewBox="-6 -4 80 68">
  <defs>
    <linearGradient id="g" x1="0" y1="0" x2="1" y2="0">
      <stop offset="0%"   stop-color="#1B3A4B"/>
      <stop offset="12%"  stop-color="#2E6B8A"/>
      <stop offset="25%"  stop-color="#4AADAD"/>
      <stop offset="37%"  stop-color="#7DCFB6"/>
      <stop offset="50%"  stop-color="#E8E4D9"/>
      <stop offset="62%"  stop-color="#E8C170"/>
      <stop offset="75%"  stop-color="#E07B4F"/>
      <stop offset="87%"  stop-color="#C7453B"/>
      <stop offset="100%" stop-color="#8B1E3F"/>
    </linearGradient>
    <clipPath id="c">
      <path d="M4,56 C8,55 12,51 16,43 C21,32 25,20 29,12 C31,8 33,6 35,8 C38,11 40,18 43,27 C46,35 48,38 51,37 C53,35 55,29 57,23 C58,20 59,22 60,29 L60,56 Z"/>
    </clipPath>
  </defs>
  <rect x="4" y="6" width="56" height="50" clip-path="url(#c)" fill="url(#g)"/>
  <path d="M4,56 C8,55 12,51 16,43 C21,32 25,20 29,12 C31,8 33,6 35,8 C38,11 40,18 43,27 C46,35 48,38 51,37 C53,35 55,29 57,23 C58,20 59,22 60,29"
    fill="none" stroke="#F0EDE5" stroke-width="1.5" stroke-linecap="round" stroke-opacity="0.6"/>
</svg>
