<svg xmlns="http://www.w3.org/2000/svg" viewBox="-6 -4 80 68">
  <defs>
    <clipPath id="c">
      <path d="M4,56 C8,55 12,51 16,43 C21,32 25,20 29,12 C31,8 33,6 35,8 C38,11 40,18 43,27 C46,35 48,38 51,37 C53,35 55,29 57,23 C58,20 59,22 60,29 L60,56 Z"/>
    </clipPath>
  </defs>

  <!-- Color bands clipped to elevation shape -->
  <g clip-path="url(#c)">
    <rect x="4"  y="0" width="7"  height="60" fill="#1B3A4B"/>
    <rect x="11" y="0" width="7"  height="60" fill="#2E6B8A"/>
    <rect x="18" y="0" width="7"  height="60" fill="#4AADAD"/>
    <rect x="25" y="0" width="7"  height="60" fill="#7DCFB6"/>
    <rect x="32" y="0" width="7"  height="60" fill="#E8C170"/>
    <rect x="39" y="0" width="7"  height="60" fill="#E07B4F"/>
    <rect x="46" y="0" width="7"  height="60" fill="#C7453B"/>
    <rect x="53" y="0" width="7"  height="60" fill="#8B1E3F"/>
    <!-- Separators -->
    <line x1="11" y1="0" x2="11" y2="60" stroke="#0e0e0e" stroke-width="0.5" opacity="0.4"/>
    <line x1="18" y1="0" x2="18" y2="60" stroke="#0e0e0e" stroke-width="0.5" opacity="0.4"/>
    <line x1="25" y1="0" x2="25" y2="60" stroke="#0e0e0e" stroke-width="0.5" opacity="0.4"/>
    <line x1="32" y1="0" x2="32" y2="60" stroke="#0e0e0e" stroke-width="0.5" opacity="0.4"/>
    <line x1="39" y1="0" x2="39" y2="60" stroke="#0e0e0e" stroke-width="0.5" opacity="0.4"/>
    <line x1="46" y1="0" x2="46" y2="60" stroke="#0e0e0e" stroke-width="0.5" opacity="0.4"/>
    <line x1="53" y1="0" x2="53" y2="60" stroke="#0e0e0e" stroke-width="0.5" opacity="0.4"/>
  </g>

  <!-- Elevation profile line -->
  <path d="M4,56 C8,55 12,51 16,43 C21,32 25,20 29,12 C31,8 33,6 35,8 C38,11 40,18 43,27 C46,35 48,38 51,37 C53,35 55,29 57,23 C58,20 59,22 60,29"
    fill="none" stroke="#F0EDE5" stroke-width="1.5" stroke-linecap="round" stroke-opacity="0.4"/>

  <!-- Aid station markers — y values matched to bezier curve -->
  <circle cx="7" cy="54" r="3" fill="#F0EDE5" stroke="#0e0e0e" stroke-width="1.2"/>
  <circle cx="20" cy="33" r="3" fill="#F0EDE5" stroke="#0e0e0e" stroke-width="1.2"/>
  <circle cx="47" cy="35" r="3" fill="#F0EDE5" stroke="#0e0e0e" stroke-width="1.2"/>
  <circle cx="60" cy="29" r="3" fill="#F0EDE5" stroke="#0e0e0e" stroke-width="1.2"/>
</svg>
